<svg xmlns="http://www.w3.org/2000/svg" width="600" height="100" fill="none"><path fill="#191919" d="M116.54 100c-11.814 0-21.2-3.297-28.16-9.89-6.96-6.685-10.44-16.3-10.44-28.846V38.736c0-12.545 3.48-22.115 10.44-28.708C95.34 3.341 104.726 0 116.54 0c11.813 0 21.199 3.342 28.159 10.027 7.051 6.594 10.577 16.163 10.577 28.71v22.527c0 12.545-3.526 22.16-10.577 28.846-6.96 6.593-16.346 9.89-28.159 9.89Zm0-13.324c7.6 0 13.461-2.198 17.582-6.594 4.121-4.487 6.181-10.576 6.181-18.269V38.187c0-7.692-2.06-13.736-6.181-18.132-4.121-4.487-9.982-6.73-17.582-6.73-7.418 0-13.233 2.243-17.445 6.73-4.213 4.396-6.32 10.44-6.32 18.132v23.626c0 7.692 2.107 13.782 6.32 18.27 4.212 4.395 10.027 6.593 17.445 6.593Zm51.216 11.401v-67.72h13.873v10.165h2.198c1.282-2.747 3.571-5.311 6.868-7.692 3.297-2.381 8.196-3.572 14.698-3.572 5.128 0 9.661 1.145 13.599 3.434 4.029 2.29 7.188 5.54 9.478 9.753 2.289 4.12 3.434 9.112 3.434 14.973v40.659h-14.149v-39.56c0-5.861-1.465-10.165-4.395-12.913-2.931-2.838-6.96-4.258-12.088-4.258-5.861 0-10.577 1.923-14.148 5.77-3.48 3.846-5.22 9.432-5.22 16.758v34.203h-14.148ZM277.815 100c-6.868 0-12.866-1.42-17.994-4.258-5.129-2.93-9.158-7.006-12.088-12.226-2.839-5.31-4.259-11.446-4.259-18.406v-1.648c0-7.052 1.42-13.187 4.259-18.407 2.839-5.311 6.776-9.386 11.813-12.225 5.128-2.93 11.035-4.396 17.72-4.396 6.502 0 12.179 1.465 17.033 4.396 4.945 2.839 8.791 6.822 11.538 11.95 2.747 5.128 4.121 11.127 4.121 17.995v5.357h-52.06c.183 5.952 2.152 10.714 5.906 14.286 3.846 3.48 8.608 5.22 14.286 5.22 5.311 0 9.295-1.191 11.95-3.572 2.748-2.381 4.854-5.128 6.319-8.242l11.676 6.044c-1.282 2.564-3.159 5.266-5.632 8.105-2.381 2.838-5.54 5.22-9.478 7.142-3.938 1.924-8.974 2.885-15.11 2.885Zm-19.78-42.72h37.5c-.366-5.128-2.198-9.111-5.495-11.95-3.296-2.93-7.6-4.396-12.912-4.396-5.311 0-9.661 1.465-13.049 4.396-3.297 2.839-5.311 6.822-6.044 11.95ZM360.643 100c-6.594 0-11.676-1.19-15.248-3.571-3.479-2.381-6.089-5.037-7.829-7.968h-2.198v9.616h-13.874V1.923h14.149V39.56h2.197c1.099-1.831 2.565-3.571 4.396-5.22 1.832-1.74 4.258-3.159 7.28-4.258 3.022-1.099 6.731-1.648 11.127-1.648 5.677 0 10.897 1.374 15.659 4.12 4.762 2.748 8.562 6.732 11.401 11.951 2.839 5.22 4.258 11.447 4.258 18.682v2.06c0 7.326-1.465 13.6-4.395 18.819-2.839 5.128-6.639 9.066-11.401 11.813-4.671 2.747-9.845 4.121-15.522 4.121Zm-4.121-12.363c6.135 0 11.172-1.969 15.11-5.906 4.029-3.938 6.044-9.57 6.044-16.896V63.6c0-7.234-1.969-12.82-5.907-16.758-3.938-3.938-9.02-5.907-15.247-5.907-6.044 0-11.081 1.969-15.11 5.907-3.938 3.937-5.907 9.523-5.907 16.758v1.236c0 7.326 1.969 12.958 5.907 16.896 4.029 3.938 9.066 5.906 15.11 5.906Zm47.476 10.44v-67.72h13.873v7.967h2.198c1.099-2.839 2.839-4.9 5.22-6.181 2.472-1.374 5.494-2.06 9.066-2.06h8.104v12.774h-8.654c-4.578 0-8.333 1.282-11.263 3.846-2.931 2.473-4.396 6.319-4.396 11.539v39.835h-14.148ZM512.319 100c-6.868 0-12.866-1.42-17.995-4.258-5.128-2.93-9.157-7.006-12.088-12.226-2.838-5.31-4.258-11.446-4.258-18.406v-1.648c0-7.052 1.42-13.187 4.258-18.407 2.839-5.311 6.777-9.386 11.814-12.225 5.128-2.93 11.034-4.396 17.719-4.396 6.502 0 12.18 1.465 17.033 4.396 4.945 2.839 8.792 6.822 11.539 11.95 2.747 5.128 4.121 11.127 4.121 17.995v5.357h-52.061c.183 5.952 2.152 10.714 5.907 14.286 3.846 3.48 8.608 5.22 14.286 5.22 5.311 0 9.294-1.191 11.95-3.572 2.747-2.381 4.854-5.128 6.319-8.242l11.676 6.044c-1.282 2.564-3.16 5.266-5.632 8.105-2.381 2.838-5.541 5.22-9.478 7.142-3.938 1.924-8.975 2.885-15.11 2.885Zm-19.78-42.72h37.5c-.367-5.128-2.198-9.111-5.495-11.95-3.297-2.93-7.601-4.396-12.912-4.396-5.311 0-9.661 1.465-13.049 4.396-3.297 2.839-5.312 6.822-6.044 11.95Zm73.136 40.797v-55.77h-18.956v-11.95h18.956V15.522c0-4.12 1.236-7.418 3.708-9.89 2.473-2.473 5.77-3.709 9.89-3.709h17.446v11.95h-12.913c-2.655 0-3.983 1.374-3.983 4.121v12.363h19.505v11.95h-19.505v55.77h-14.148Zm-111.85.687V32.006h14.54v66.758h-14.54Zm0-79.982V1.887h14.54v16.895h-14.54Z"/><path fill="#019EFF" d="M0 19.342V2.339c0-.25.204-.452.456-.452h49.586c.405 0 .61.485.324.77L19.4 33.665a.457.457 0 0 1-.78-.319v-13.1a.454.454 0 0 0-.456-.452H.456A.454.454 0 0 1 0 19.342Zm37.697 37.935h17.145a.454.454 0 0 0 .456-.452V7.048a.456.456 0 0 0-.778-.32L23.246 37.72a.452.452 0 0 0 .322.772h13.217c.252 0 .456.203.456.452v17.88c0 .25.204.453.456.453Z"/></svg>